# xmcd
#
# Track frame offsets:
#	150
#	12767
#	24718
#	37323
#	50720
#	63985
#	77391
#	89863
#	101624
#	114462
#	127361
#	139427
#	151409
#	162409
#	174712
#	187403
#	198364
#	209837
#	222140
#	234014
#	246517
#
# Disc length: 3432 seconds
#
# Revision: 0
# Processed by: cddbd v1.5PL3 Copyright (c) Steve Scherf et al.
# Submitted via: dBpowerAMP V4.0
#
DISCID=460d6615
DTITLE=Hank Williams - His All-Time Greatest Hits, Disk 1
DYEAR=2000
DGENRE=Country
TTITLE0=Move It On Over
TTITLE1=Mansion On The Hill
TTITLE2=Lovesick Blues
TTITLE3=Wedding Bell
TTITLE4=Mind Your Own Business
TTITLE5=You're Gonna Change
TTITLE6=Lost Highway
TTITLE7=My Bucket's Got A Hole In It
TTITLE8=I'm So Lonesome I Could Cry
TTITLE9=I Just Don't Like This Kind of Living
TTITLE10=Long Gone Lonesome Blues
TTITLE11=My Son Calls Another Man Daddy
TTITLE12=Why Don't You Love Me LIke You Used To Do
TTITLE13=Why Should We Try Anymore
TTITLE14=They'll Never Take Her Love Form Me
TTITLE15=Moanin' The Blues
TTITLE16=Nobody's Lonesome For Me
TTITLE17=Cold, Cold Heart
TTITLE18=Dear John
TTITLE19=Howlin' At The Moon
TTITLE20=I Can't Help It If I'm Still In Love With You
EXTD=
EXTT0=
EXTT1=
EXTT2=
EXTT3=
EXTT4=
EXTT5=
EXTT6=
EXTT7=
EXTT8=
EXTT9=
EXTT10=
EXTT11=
EXTT12=
EXTT13=
EXTT14=
EXTT15=
EXTT16=
EXTT17=
EXTT18=
EXTT19=
EXTT20=
PLAYORDER=
